<svg width="36" height="36" viewBox="0 0 36 36" fill="none" xmlns="http://www.w3.org/2000/svg">
<mask id="path-1-inside-1_11312_34252" fill="white">
<path d="M36 18H27V36H9V18H0V0H36V18Z"/>
</mask>
<path d="M36 18H27V36H9V18H0V0H36V18Z" fill="#BC916B"/>
<path d="M36 18V20H38V18H36ZM27 18V16H25V18H27ZM27 36V38H29V36H27ZM9 36H7V38H9V36ZM9 18H11V16H9V18ZM0 18H-2V20H0V18ZM0 0V-2H-2V0H0ZM36 0H38V-2H36V0ZM36 18V16H27V18V20H36V18ZM27 18H25V36H27H29V18H27ZM27 36V34H9V36V38H27V36ZM9 36H11V18H9H7V36H9ZM9 18V16H0V18V20H9V18ZM0 18H2V0H0H-2V18H0ZM0 0V2H36V0V-2H0V0ZM36 0H34V18H36H38V0H36Z" fill="black" mask="url(#path-1-inside-1_11312_34252)"/>
</svg>
