<svg width="36" height="36" viewBox="0 0 36 36" fill="none" xmlns="http://www.w3.org/2000/svg">
<mask id="path-1-inside-1_11312_34248" fill="white">
<path d="M18 18H36V36H0V0H18V18Z"/>
</mask>
<path d="M18 18H36V36H0V0H18V18Z" fill="#BC916B"/>
<path d="M18 18H16V20H18V18ZM36 18H38V16H36V18ZM36 36V38H38V36H36ZM0 36H-2V38H0V36ZM0 0V-2H-2V0H0ZM18 0H20V-2H18V0ZM18 18V20H36V18V16H18V18ZM36 18H34V36H36H38V18H36ZM36 36V34H0V36V38H36V36ZM0 36H2V0H0H-2V36H0ZM0 0V2H18V0V-2H0V0ZM18 0H16V18H18H20V0H18Z" fill="black" mask="url(#path-1-inside-1_11312_34248)"/>
</svg>
